STARTFONT 2.1
FONT -DEC-Terminal-Medium-R-Narrow--28-280-75-75-C-120-iso8859-4
SIZE 28 75 75
FONTBOUNDINGBOX 12 26 0 -5

STARTPROPERTIES 24
FOUNDRY "Monotype"
FAMILY_NAME "VT"
WEIGHT_NAME "Regular"
SLANT "R"
SETWIDTH_NAME "Narrow"
ADD_STYLE_NAME ""
PIXEL_SIZE 28
POINT_SIZE 280
RESOLUTION_X 75
RESOLUTION_Y 75
SPACING "C"
AVERAGE_WIDTH 120
CHARSET_REGISTRY "iso8859"
CHARSET_ENCODING "4"
FACE_NAME "VT Narrow ISO Latin4"
_DEC_DEVICE_FONTNAMES "PS=vt-narrow-isolatin4"
COPYRIGHT "Copyright (c) 1993 Monotype Typography Ltd."
CAP_HEIGHT 17
X_HEIGHT 12
WEIGHT 10
QUAD_WIDTH 11
DEFAULT_CHAR 160
FONT_DESCENT 6
FONT_ASCENT 24
ENDPROPERTIES

CHARS 191

STARTCHAR space
ENCODING 32
SWIDTH 361 0
DWIDTH 12 0
BBX 0 0 0 0
BITMAP
ENDCHAR

STARTCHAR exclam
ENCODING 33
SWIDTH 361 0
DWIDTH 12 0
BBX 2 16 5 0
BITMAP
C0
C0
C0
C0
C0
C0
C0
C0
C0
C0
C0
00
00
C0
C0
C0
ENDCHAR

STARTCHAR quotedbl
ENCODING 34
SWIDTH 361 0
DWIDTH 12 0
BBX 6 6 3 12
BITMAP
CC
CC
CC
CC
CC
CC
ENDCHAR

STARTCHAR numbersign
ENCODING 35
SWIDTH 361 0
DWIDTH 12 0
BBX 10 14 1 2
BITMAP
3300
3300
3300
3300
FFC0
FFC0
3300
3300
FFC0
FFC0
3300
3300
3300
3300
ENDCHAR

STARTCHAR dollar
ENCODING 36
SWIDTH 361 0
DWIDTH 12 0
BBX 10 16 1 0
BITMAP
0C00
0C00
3F00
7F80
EDC0
CCC0
EC00
7F00
3F80
0DC0
CCC0
EDC0
7F80
3F00
0C00
0C00
ENDCHAR

STARTCHAR percent
ENCODING 37
SWIDTH 361 0
DWIDTH 12 0
BBX 11 16 1 0
BITMAP
3000
7800
CC60
CCE0
79C0
3380
0700
0E00
1C00
3800
7300
E780
CCC0
0CC0
0780
0300
ENDCHAR

STARTCHAR ampersand
ENCODING 38
SWIDTH 361 0
DWIDTH 12 0
BBX 10 16 1 0
BITMAP
1C00
3E00
7700
6300
6300
7700
3E00
3800
7C00
EEC0
C7C0
C380
C380
E7C0
7EC0
3CC0
ENDCHAR

STARTCHAR quoteright
ENCODING 39
SWIDTH 361 0
DWIDTH 12 0
BBX 3 5 4 13
BITMAP
60
60
60
C0
80
ENDCHAR

STARTCHAR parenleft
ENCODING 40
SWIDTH 361 0
DWIDTH 12 0
BBX 6 20 3 -2
BITMAP
0C
18
30
30
60
60
C0
C0
C0
C0
C0
C0
C0
C0
60
60
30
30
18
0C
ENDCHAR

STARTCHAR parenright
ENCODING 41
SWIDTH 361 0
DWIDTH 12 0
BBX 6 20 3 -2
BITMAP
C0
60
30
30
18
18
0C
0C
0C
0C
0C
0C
0C
0C
18
18
30
30
60
C0
ENDCHAR

STARTCHAR asterisk
ENCODING 42
SWIDTH 361 0
DWIDTH 12 0
BBX 8 10 2 6
BITMAP
18
18
DB
FF
7E
7E
FF
DB
18
18
ENDCHAR

STARTCHAR plus
ENCODING 43
SWIDTH 361 0
DWIDTH 12 0
BBX 10 10 1 3
BITMAP
0C00
0C00
0C00
0C00
FFC0
FFC0
0C00
0C00
0C00
0C00
ENDCHAR

STARTCHAR comma
ENCODING 44
SWIDTH 361 0
DWIDTH 12 0
BBX 3 5 4 -2
BITMAP
60
60
60
C0
80
ENDCHAR

STARTCHAR minus
ENCODING 45
SWIDTH 361 0
DWIDTH 12 0
BBX 10 2 1 7
BITMAP
FFC0
FFC0
ENDCHAR

STARTCHAR period
ENCODING 46
SWIDTH 361 0
DWIDTH 12 0
BBX 2 3 4 0
BITMAP
C0
C0
C0
ENDCHAR

STARTCHAR slash
ENCODING 47
SWIDTH 361 0
DWIDTH 12 0
BBX 9 16 1 0
BITMAP
0180
0180
0300
0300
0600
0600
0C00
0C00
1800
1800
3000
3000
6000
6000
C000
C000
ENDCHAR

STARTCHAR zero
ENCODING 48
SWIDTH 361 0
DWIDTH 12 0
BBX 10 16 1 0
BITMAP
1E00
3F00
6180
6180
C0C0
C0C0
C0C0
C0C0
C0C0
C0C0
C0C0
C0C0
6180
6180
3F00
1E00
ENDCHAR

STARTCHAR one
ENCODING 49
SWIDTH 361 0
DWIDTH 12 0
BBX 10 16 1 0
BITMAP
0C00
1C00
3C00
7C00
EC00
CC00
0C00
0C00
0C00
0C00
0C00
0C00
0C00
0C00
FFC0
FFC0
ENDCHAR

STARTCHAR two
ENCODING 50
SWIDTH 361 0
DWIDTH 12 0
BBX 10 16 1 0
BITMAP
3F00
7F80
E1C0
C0C0
C0C0
01C0
0380
0700
0E00
1C00
3800
7000
E000
C0C0
FFC0
FFC0
ENDCHAR

STARTCHAR three
ENCODING 51
SWIDTH 361 0
DWIDTH 12 0
BBX 10 16 1 0
BITMAP
3F00
7F80
E1C0
C0C0
00C0
01C0
0F80
0F80
01C0
00C0
00C0
00C0
C0C0
E1C0
7F80
3F00
ENDCHAR

STARTCHAR four
ENCODING 52
SWIDTH 361 0
DWIDTH 12 0
BBX 10 16 1 0
BITMAP
0700
0700
0F00
0F00
1B00
1B00
3300
3300
6300
6300
FFC0
FFC0
0300
0300
0300
0300
ENDCHAR

STARTCHAR five
ENCODING 53
SWIDTH 361 0
DWIDTH 12 0
BBX 10 16 1 0
BITMAP
FFC0
FFC0
C000
C000
C000
DF00
FF80
E1C0
C0C0
00C0
00C0
00C0
C0C0
E1C0
7F80
3F00
ENDCHAR

STARTCHAR six
ENCODING 54
SWIDTH 361 0
DWIDTH 12 0
BBX 10 16 1 0
BITMAP
3F00
7F80
E1C0
C0C0
C000
DF00
FF80
E1C0
C0C0
C0C0
C0C0
C0C0
C0C0
E1C0
7F80
3F00
ENDCHAR

STARTCHAR seven
ENCODING 55
SWIDTH 361 0
DWIDTH 12 0
BBX 9 16 1 0
BITMAP
FF80
FF80
0180
0180
0300
0300
0600
0600
0C00
0C00
1800
1800
3000
3000
6000
6000
ENDCHAR

STARTCHAR eight
ENCODING 56
SWIDTH 361 0
DWIDTH 12 0
BBX 10 16 1 0
BITMAP
3F00
7F80
E1C0
C0C0
C0C0
E1C0
7F80
7F80
E1C0
C0C0
C0C0
C0C0
C0C0
E1C0
7F80
3F00
ENDCHAR

STARTCHAR nine
ENCODING 57
SWIDTH 361 0
DWIDTH 12 0
BBX 10 16 1 0
BITMAP
3F00
7F80
E1C0
C0C0
C0C0
C0C0
C0C0
E1C0
7FC0
3EC0
00C0
00C0
C0C0
E1C0
7F80
3F00
ENDCHAR

STARTCHAR colon
ENCODING 58
SWIDTH 361 0
DWIDTH 12 0
BBX 2 10 5 0
BITMAP
C0
C0
C0
00
00
00
00
C0
C0
C0
ENDCHAR

STARTCHAR semicolon
ENCODING 59
SWIDTH 361 0
DWIDTH 12 0
BBX 4 12 3 -2
BITMAP
30
30
30
00
00
00
00
30
30
30
60
C0
ENDCHAR

STARTCHAR less
ENCODING 60
SWIDTH 361 0
DWIDTH 12 0
BBX 9 14 2 0
BITMAP
0380
0700
0E00
1C00
3800
7000
E000
E000
7000
3800
1C00
0E00
0700
0380
ENDCHAR

STARTCHAR equal
ENCODING 61
SWIDTH 361 0
DWIDTH 12 0
BBX 10 6 1 5
BITMAP
FFC0
FFC0
0000
0000
FFC0
FFC0
ENDCHAR

STARTCHAR greater
ENCODING 62
SWIDTH 361 0
DWIDTH 12 0
BBX 9 14 2 0
BITMAP
E000
7000
3800
1C00
0E00
0700
0380
0380
0700
0E00
1C00
3800
7000
E000
ENDCHAR

STARTCHAR question
ENCODING 63
SWIDTH 361 0
DWIDTH 12 0
BBX 10 16 1 0
BITMAP
3F00
7F80
E1C0
C0C0
C0C0
01C0
0380
0700
0E00
0C00
0C00
0C00
0000
0C00
0C00
0C00
ENDCHAR

STARTCHAR at
ENCODING 64
SWIDTH 361 0
DWIDTH 12 0
BBX 10 16 1 0
BITMAP
3F00
7F80
E1C0
C0C0
C6C0
CFC0
CCC0
CCC0
CCC0
CCC0
CFC0
C6C0
C000
E000
7F80
3F00
ENDCHAR

STARTCHAR A
ENCODING 65
SWIDTH 361 0
DWIDTH 12 0
BBX 10 16 1 0
BITMAP
0C00
0C00
1E00
3300
3300
6180
6180
C0C0
C0C0
FFC0
FFC0
C0C0
C0C0
C0C0
C0C0
C0C0
ENDCHAR

STARTCHAR B
ENCODING 66
SWIDTH 361 0
DWIDTH 12 0
BBX 10 16 1 0
BITMAP
FF00
FF80
C1C0
C0C0
C0C0
C1C0
FF80
FF80
C1C0
C0C0
C0C0
C0C0
C0C0
C1C0
FF80
FF00
ENDCHAR

STARTCHAR C
ENCODING 67
SWIDTH 361 0
DWIDTH 12 0
BBX 10 16 1 0
BITMAP
3F00
7F80
E1C0
C0C0
C000
C000
C000
C000
C000
C000
C000
C000
C0C0
E1C0
7F80
3F00
ENDCHAR

STARTCHAR D
ENCODING 68
SWIDTH 361 0
DWIDTH 12 0
BBX 10 16 1 0
BITMAP
FF00
FF80
61C0
60C0
60C0
60C0
60C0
60C0
60C0
60C0
60C0
60C0
60C0
61C0
FF80
FF00
ENDCHAR

STARTCHAR E
ENCODING 69
SWIDTH 361 0
DWIDTH 12 0
BBX 10 16 1 0
BITMAP
FFC0
FFC0
C000
C000
C000
C000
C000
FF00
FF00
C000
C000
C000
C000
C000
FFC0
FFC0
ENDCHAR

STARTCHAR F
ENCODING 70
SWIDTH 361 0
DWIDTH 12 0
BBX 10 16 1 0
BITMAP
FFC0
FFC0
C000
C000
C000
C000
C000
FF00
FF00
C000
C000
C000
C000
C000
C000
C000
ENDCHAR

STARTCHAR G
ENCODING 71
SWIDTH 361 0
DWIDTH 12 0
BBX 10 16 1 0
BITMAP
3F00
7F80
E1C0
C0C0
C000
C000
C000
C3C0
C3C0
C0C0
C0C0
C0C0
C0C0
E0C0
7FC0
3FC0
ENDCHAR

STARTCHAR H
ENCODING 72
SWIDTH 361 0
DWIDTH 12 0
BBX 10 16 1 0
BITMAP
C0C0
C0C0
C0C0
C0C0
C0C0
C0C0
C0C0
FFC0
FFC0
C0C0
C0C0
C0C0
C0C0
C0C0
C0C0
C0C0
ENDCHAR

STARTCHAR I
ENCODING 73
SWIDTH 361 0
DWIDTH 12 0
BBX 10 16 1 0
BITMAP
FFC0
FFC0
0C00
0C00
0C00
0C00
0C00
0C00
0C00
0C00
0C00
0C00
0C00
0C00
FFC0
FFC0
ENDCHAR

STARTCHAR J
ENCODING 74
SWIDTH 361 0
DWIDTH 12 0
BBX 11 16 1 0
BITMAP
07E0
07E0
0180
0180
0180
0180
0180
0180
0180
0180
C180
C180
C180
E380
7F00
3E00
ENDCHAR

STARTCHAR K
ENCODING 75
SWIDTH 361 0
DWIDTH 12 0
BBX 10 16 1 0
BITMAP
C0C0
C1C0
C380
C700
CE00
DC00
F800
F000
F000
F800
DC00
CE00
C700
C380
C1C0
C0C0
ENDCHAR

STARTCHAR L
ENCODING 76
SWIDTH 361 0
DWIDTH 12 0
BBX 10 16 1 0
BITMAP
C000
C000
C000
C000
C000
C000
C000
C000
C000
C000
C000
C000
C000
C000
FFC0
FFC0
ENDCHAR

STARTCHAR M
ENCODING 77
SWIDTH 361 0
DWIDTH 12 0
BBX 10 16 1 0
BITMAP
C0C0
E1C0
E1C0
F3C0
F3C0
D2C0
DEC0
DEC0
CCC0
CCC0
C0C0
C0C0
C0C0
C0C0
C0C0
C0C0
ENDCHAR

STARTCHAR N
ENCODING 78
SWIDTH 361 0
DWIDTH 12 0
BBX 10 16 1 0
BITMAP
C0C0
E0C0
E0C0
F0C0
F0C0
D8C0
D8C0
CCC0
CCC0
C6C0
C6C0
C3C0
C3C0
C1C0
C1C0
C0C0
ENDCHAR

STARTCHAR O
ENCODING 79
SWIDTH 361 0
DWIDTH 12 0
BBX 10 16 1 0
BITMAP
3F00
7F80
E1C0
C0C0
C0C0
C0C0
C0C0
C0C0
C0C0
C0C0
C0C0
C0C0
C0C0
E1C0
7F80
3F00
ENDCHAR

STARTCHAR P
ENCODING 80
SWIDTH 361 0
DWIDTH 12 0
BBX 10 16 1 0
BITMAP
FF00
FF80
C1C0
C0C0
C0C0
C0C0
C0C0
C1C0
FF80
FF00
C000
C000
C000
C000
C000
C000
ENDCHAR

STARTCHAR Q
ENCODING 81
SWIDTH 361 0
DWIDTH 12 0
BBX 10 18 1 -2
BITMAP
3F00
7F80
E1C0
C0C0
C0C0
C0C0
C0C0
C0C0
C0C0
C0C0
C0C0
C0C0
CCC0
E7C0
7F80
3F00
0300
0180
ENDCHAR

STARTCHAR R
ENCODING 82
SWIDTH 361 0
DWIDTH 12 0
BBX 10 16 1 0
BITMAP
FF00
FF80
C1C0
C0C0
C0C0
C0C0
C0C0
C1C0
FF80
FF00
C600
C300
C380
C180
C1C0
C0C0
ENDCHAR

STARTCHAR S
ENCODING 83
SWIDTH 361 0
DWIDTH 12 0
BBX 10 16 1 0
BITMAP
3F00
7F80
E1C0
C0C0
C000
E000
7F00
3F80
01C0
00C0
00C0
00C0
C0C0
E1C0
7F80
3F00
ENDCHAR

STARTCHAR T
ENCODING 84
SWIDTH 361 0
DWIDTH 12 0
BBX 10 16 1 0
BITMAP
FFC0
FFC0
0C00
0C00
0C00
0C00
0C00
0C00
0C00
0C00
0C00
0C00
0C00
0C00
0C00
0C00
ENDCHAR

STARTCHAR U
ENCODING 85
SWIDTH 361 0
DWIDTH 12 0
BBX 10 16 1 0
BITMAP
C0C0
C0C0
C0C0
C0C0
C0C0
C0C0
C0C0
C0C0
C0C0
C0C0
C0C0
C0C0
C0C0
E1C0
7F80
3F00
ENDCHAR

STARTCHAR V
ENCODING 86
SWIDTH 361 0
DWIDTH 12 0
BBX 10 16 1 0
BITMAP
C0C0
C0C0
C0C0
C0C0
C0C0
C0C0
C0C0
C0C0
E1C0
6180
6180
3300
3300
1E00
1E00
0C00
ENDCHAR

STARTCHAR W
ENCODING 87
SWIDTH 361 0
DWIDTH 12 0
BBX 10 16 1 0
BITMAP
C0C0
C0C0
C0C0
C0C0
C0C0
C0C0
CCC0
CCC0
CCC0
CCC0
CCC0
CCC0
CCC0
CCC0
FFC0
7380
ENDCHAR

STARTCHAR X
ENCODING 88
SWIDTH 361 0
DWIDTH 12 0
BBX 10 16 1 0
BITMAP
C0C0
C0C0
C0C0
6180
6180
3300
3F00
1E00
1E00
3F00
3300
6180
6180
C0C0
C0C0
C0C0
ENDCHAR

STARTCHAR Y
ENCODING 89
SWIDTH 361 0
DWIDTH 12 0
BBX 10 16 1 0
BITMAP
C0C0
C0C0
C0C0
C0C0
C0C0
E1C0
6180
7380
3F00
1E00
0C00
0C00
0C00
0C00
0C00
0C00
ENDCHAR

STARTCHAR Z
ENCODING 90
SWIDTH 361 0
DWIDTH 12 0
BBX 10 16 1 0
BITMAP
FFC0
FFC0
00C0
00C0
01C0
0380
0700
0E00
1C00
3800
7000
E000
C000
C000
FFC0
FFC0
ENDCHAR

STARTCHAR bracketleft
ENCODING 91
SWIDTH 361 0
DWIDTH 12 0
BBX 6 20 3 -2
BITMAP
FC
FC
C0
C0
C0
C0
C0
C0
C0
C0
C0
C0
C0
C0
C0
C0
C0
C0
FC
FC
ENDCHAR

STARTCHAR backslash
ENCODING 92
SWIDTH 361 0
DWIDTH 12 0
BBX 9 16 2 -1
BITMAP
C000
C000
6000
6000
3000
3000
1800
1800
0C00
0C00
0600
0600
0300
0300
0180
0180
ENDCHAR

STARTCHAR bracketright
ENCODING 93
SWIDTH 361 0
DWIDTH 12 0
BBX 6 20 3 -2
BITMAP
FC
FC
0C
0C
0C
0C
0C
0C
0C
0C
0C
0C
0C
0C
0C
0C
0C
0C
FC
FC
ENDCHAR

STARTCHAR asciicircum
ENCODING 94
SWIDTH 361 0
DWIDTH 12 0
BBX 10 6 1 12
BITMAP
0C00
1E00
3F00
7380
E1C0
C0C0
ENDCHAR

STARTCHAR underscore
ENCODING 95
SWIDTH 361 0
DWIDTH 12 0
BBX 10 2 1 -2
BITMAP
FFC0
FFC0
ENDCHAR

STARTCHAR quoteleft
ENCODING 96
SWIDTH 361 0
DWIDTH 12 0
BBX 3 5 5 13
BITMAP
C0
C0
C0
60
20
ENDCHAR

STARTCHAR a
ENCODING 97
SWIDTH 361 0
DWIDTH 12 0
BBX 10 12 1 0
BITMAP
7F00
7F80
01C0
00C0
3EC0
7FC0
E1C0
C0C0
C0C0
E1C0
7FC0
3EC0
ENDCHAR

STARTCHAR b
ENCODING 98
SWIDTH 361 0
DWIDTH 12 0
BBX 10 16 1 0
BITMAP
C000
C000
C000
C000
CF00
DF80
F1C0
E0C0
C0C0
C0C0
C0C0
C0C0
C0C0
E1C0
FF80
DF00
ENDCHAR

STARTCHAR c
ENCODING 99
SWIDTH 361 0
DWIDTH 12 0
BBX 10 12 1 0
BITMAP
3F00
7F80
E1C0
C0C0
C000
C000
C000
C000
C0C0
E1C0
7F80
3F00
ENDCHAR

STARTCHAR d
ENCODING 100
SWIDTH 361 0
DWIDTH 12 0
BBX 10 16 1 0
BITMAP
00C0
00C0
00C0
00C0
3EC0
7FC0
E1C0
C0C0
C0C0
C0C0
C0C0
C0C0
C0C0
E1C0
7FC0
3EC0
ENDCHAR

STARTCHAR e
ENCODING 101
SWIDTH 361 0
DWIDTH 12 0
BBX 10 12 1 0
BITMAP
3F00
7F80
E1C0
C0C0
FFC0
FFC0
C000
C000
C0C0
E1C0
7F80
3F00
ENDCHAR

STARTCHAR f
ENCODING 102
SWIDTH 361 0
DWIDTH 12 0
BBX 10 16 2 0
BITMAP
0F00
1F80
39C0
30C0
3000
3000
FF00
FF00
3000
3000
3000
3000
3000
3000
3000
3000
ENDCHAR

STARTCHAR g
ENCODING 103
SWIDTH 361 0
DWIDTH 12 0
BBX 10 16 1 -4
BITMAP
3FC0
7FC0
E1C0
C0C0
C0C0
C0C0
C0C0
C0C0
61C0
7FC0
3FC0
00C0
00C0
C180
FF80
7F00
ENDCHAR

STARTCHAR h
ENCODING 104
SWIDTH 361 0
DWIDTH 12 0
BBX 10 16 1 0
BITMAP
C000
C000
C000
C000
CF00
DF80
F1C0
E0C0
C0C0
C0C0
C0C0
C0C0
C0C0
C0C0
C0C0
C0C0
ENDCHAR

STARTCHAR i
ENCODING 105
SWIDTH 362 0
DWIDTH 12 0
BBX 10 16 1 0
BITMAP
0C00
0C00
0C00
0000
7C00
7C00
0C00
0C00
0C00
0C00
0C00
0C00
0C00
0C00
FFC0
FFC0
ENDCHAR

STARTCHAR j
ENCODING 106
SWIDTH 361 0
DWIDTH 12 0
BBX 7 19 3 -3
BITMAP
06
06
06
00
3E
3E
06
06
06
06
06
06
06
06
06
06
0E
FC
F8
ENDCHAR

STARTCHAR k
ENCODING 107
SWIDTH 361 0
DWIDTH 12 0
BBX 10 16 1 0
BITMAP
C000
C000
C000
C000
C380
C700
CE00
DC00
F800
F800
FC00
CE00
C700
C380
C1C0
C0C0
ENDCHAR

STARTCHAR l
ENCODING 108
SWIDTH 361 0
DWIDTH 12 0
BBX 10 16 1 0
BITMAP
3C00
3C00
0C00
0C00
0C00
0C00
0C00
0C00
0C00
0C00
0C00
0C00
0C00
0C00
FFC0
FFC0
ENDCHAR

STARTCHAR m
ENCODING 109
SWIDTH 361 0
DWIDTH 12 0
BBX 10 12 1 0
BITMAP
F380
FFC0
DEC0
CCC0
CCC0
CCC0
CCC0
CCC0
CCC0
CCC0
CCC0
CCC0
ENDCHAR

STARTCHAR n
ENCODING 110
SWIDTH 361 0
DWIDTH 12 0
BBX 10 12 1 0
BITMAP
CF00
DF80
F1C0
E0C0
C0C0
C0C0
C0C0
C0C0
C0C0
C0C0
C0C0
C0C0
ENDCHAR

STARTCHAR o
ENCODING 111
SWIDTH 361 0
DWIDTH 12 0
BBX 10 12 1 0
BITMAP
3F00
7F80
E1C0
C0C0
C0C0
C0C0
C0C0
C0C0
C0C0
E1C0
7F80
3F00
ENDCHAR

STARTCHAR p
ENCODING 112
SWIDTH 361 0
DWIDTH 12 0
BBX 10 15 1 -3
BITMAP
DF00
FF80
E1C0
C0C0
C0C0
C0C0
C0C0
C0C0
C0C0
E1C0
FF80
DF00
C000
C000
C000
ENDCHAR

STARTCHAR q
ENCODING 113
SWIDTH 361 0
DWIDTH 12 0
BBX 10 15 1 -3
BITMAP
3EC0
7FC0
E1C0
C0C0
C0C0
C0C0
C0C0
C0C0
C1C0
E3C0
7EC0
3CC0
00C0
00C0
00C0
ENDCHAR

STARTCHAR r
ENCODING 114
SWIDTH 361 0
DWIDTH 12 0
BBX 9 12 2 0
BITMAP
CF00
FF80
7180
6000
6000
6000
6000
6000
6000
6000
6000
6000
ENDCHAR

STARTCHAR s
ENCODING 115
SWIDTH 361 0
DWIDTH 12 0
BBX 10 12 1 0
BITMAP
3F00
7F80
E1C0
C0C0
E000
7F00
3F80
01C0
C0C0
E1C0
7F80
3F00
ENDCHAR

STARTCHAR t
ENCODING 116
SWIDTH 361 0
DWIDTH 12 0
BBX 10 16 1 0
BITMAP
3000
3000
3000
3000
FF00
FF00
3000
3000
3000
3000
3000
3000
30C0
39C0
1F80
0F00
ENDCHAR

STARTCHAR u
ENCODING 117
SWIDTH 361 0
DWIDTH 12 0
BBX 10 12 1 0
BITMAP
C0C0
C0C0
C0C0
C0C0
C0C0
C0C0
C0C0
C0C0
C1C0
E3C0
7EC0
3CC0
ENDCHAR

STARTCHAR v
ENCODING 118
SWIDTH 361 0
DWIDTH 12 0
BBX 10 12 1 0
BITMAP
C0C0
C0C0
C0C0
C0C0
C0C0
C0C0
6180
6180
3300
3300
1E00
0C00
ENDCHAR

STARTCHAR w
ENCODING 119
SWIDTH 361 0
DWIDTH 12 0
BBX 10 12 1 0
BITMAP
C0C0
C0C0
C0C0
C0C0
CCC0
CCC0
CCC0
CCC0
CCC0
CCC0
7F80
3300
ENDCHAR

STARTCHAR x
ENCODING 120
SWIDTH 361 0
DWIDTH 12 0
BBX 10 12 1 0
BITMAP
E1C0
6180
3300
3300
1E00
0C00
0C00
1E00
3300
3300
6180
E1C0
ENDCHAR

STARTCHAR y
ENCODING 121
SWIDTH 361 0
DWIDTH 12 0
BBX 10 15 1 -3
BITMAP
C0C0
C0C0
C0C0
C0C0
E0C0
6180
6180
3180
3F00
1F00
0600
0E00
1C00
7800
7000
ENDCHAR

STARTCHAR z
ENCODING 122
SWIDTH 361 0
DWIDTH 12 0
BBX 10 12 1 0
BITMAP
FFC0
FFC0
01C0
0380
0700
0E00
1C00
3800
7000
E000
FFC0
FFC0
ENDCHAR

STARTCHAR braceleft
ENCODING 123
SWIDTH 361 0
DWIDTH 12 0
BBX 8 20 2 -2
BITMAP
0E
1E
38
30
30
38
1C
0C
F8
F8
0C
1C
38
30
30
30
30
38
1F
0F
ENDCHAR

STARTCHAR bar
ENCODING 124
SWIDTH 361 0
DWIDTH 12 0
BBX 2 16 5 0
BITMAP
C0
C0
C0
C0
C0
C0
C0
C0
C0
C0
C0
C0
C0
C0
C0
C0
ENDCHAR

STARTCHAR braceright
ENCODING 125
SWIDTH 361 0
DWIDTH 12 0
BBX 8 20 2 -2
BITMAP
F0
F8
1C
0C
0C
1C
38
30
1F
1F
30
38
1C
0C
0C
0C
0C
1C
F8
F0
ENDCHAR

STARTCHAR asciitilde
ENCODING 126
SWIDTH 361 0
DWIDTH 12 0
BBX 10 6 1 12
BITMAP
70C0
F8C0
FCC0
CFC0
C7C0
C380
ENDCHAR

STARTCHAR space
ENCODING 160
SWIDTH 361 0
DWIDTH 12 0
BBX 0 0 0 0
BITMAP
ENDCHAR

STARTCHAR Aogonek
ENCODING 161
SWIDTH 361 0
DWIDTH 12 0
BBX 11 19 1 -3
BITMAP
0C00
0C00
1E00
3300
3300
6180
6180
C0C0
C0C0
FFC0
FFC0
C0C0
C0C0
C0C0
C0C0
C0C0
0180
01E0
00E0
ENDCHAR

STARTCHAR afii240
ENCODING 162
SWIDTH 361 0
DWIDTH 12 0
BBX 8 12 2 0
BITMAP
C3
C6
CC
D8
F0
F8
CC
CC
C6
C6
C3
C3
ENDCHAR

STARTCHAR Rcommaaccent
ENCODING 163
SWIDTH 361 0
DWIDTH 12 0
BBX 10 20 1 -4
BITMAP
FF00
FF80
C1C0
C0C0
C0C0
C0C0
C0C0
C1C0
FF80
FF00
C600
C300
C380
C180
C1C0
C0C0
0000
0C00
0C00
1800
ENDCHAR

STARTCHAR currency
ENCODING 164
SWIDTH 361 0
DWIDTH 12 0
BBX 10 11 1 3
BITMAP
C0C0
E1C0
7F80
3F00
3300
3300
3300
3F00
7F80
E1C0
C0C0
ENDCHAR

STARTCHAR Itilde
ENCODING 165
SWIDTH 361 0
DWIDTH 12 0
BBX 10 21 1 0
BITMAP
1980
3F00
6600
0000
0000
FFC0
FFC0
0C00
0C00
0C00
0C00
0C00
0C00
0C00
0C00
0C00
0C00
0C00
0C00
FFC0
FFC0
ENDCHAR

STARTCHAR Lcommaaccent
ENCODING 166
SWIDTH 361 0
DWIDTH 12 0
BBX 10 20 1 -4
BITMAP
C000
C000
C000
C000
C000
C000
C000
C000
C000
C000
C000
C000
C000
C000
FFC0
FFC0
0000
0C00
0C00
1800
ENDCHAR

STARTCHAR section
ENCODING 167
SWIDTH 361 0
DWIDTH 12 0
BBX 8 18 2 0
BITMAP
3C
7E
E7
E3
70
38
7C
CE
C7
E3
73
3E
1C
0E
C7
E7
7E
3C
ENDCHAR

STARTCHAR hungarumlaut
ENCODING 168
SWIDTH 361 0
DWIDTH 12 0
BBX 7 3 3 14
BITMAP
36
6C
D8
ENDCHAR

STARTCHAR Scaron
ENCODING 169
SWIDTH 361 0
DWIDTH 12 0
BBX 10 21 1 0
BITMAP
3300
1E00
0C00
0000
0000
3F00
7F80
E1C0
C0C0
C000
E000
7F00
3F80
01C0
00C0
00C0
00C0
C0C0
E1C0
7F80
3F00
ENDCHAR

STARTCHAR Emacron
ENCODING 170
SWIDTH 361 0
DWIDTH 12 0
BBX 10 21 1 0
BITMAP
3F00
3F00
0000
0000
0000
FFC0
FFC0
C000
C000
C000
C000
C000
FF00
FF00
C000
C000
C000
C000
C000
FFC0
FFC0
ENDCHAR

STARTCHAR Gcommaaccent
ENCODING 171
SWIDTH 361 0
DWIDTH 12 0
BBX 10 20 1 -4
BITMAP
3F00
7F80
E1C0
C0C0
C000
C000
C000
C3C0
C3C0
C0C0
C0C0
C0C0
C0C0
E0C0
7FC0
3FC0
0000
0C00
0C00
1800
ENDCHAR

STARTCHAR afii237
ENCODING 172
SWIDTH 361 0
DWIDTH 10 0
BBX 10 16 0 0
BITMAP
FFC0
FFC0
0C00
0C00
0C00
0C00
0C00
7F80
7F80
0C00
0C00
0C00
0C00
0C00
0C00
0C00
ENDCHAR

STARTCHAR hyphen
ENCODING 173
SWIDTH 361 0
DWIDTH 12 0
BBX 6 2 3 7
BITMAP
FC
FC
ENDCHAR

STARTCHAR Zcaron
ENCODING 174
SWIDTH 361 0
DWIDTH 12 0
BBX 10 21 1 0
BITMAP
3300
1E00
0C00
0000
0000
FFC0
FFC0
00C0
00C0
01C0
0380
0700
0E00
1C00
3800
7000
E000
C000
C000
FFC0
FFC0
ENDCHAR

STARTCHAR macron
ENCODING 175
SWIDTH 361 0
DWIDTH 12 0
BBX 6 2 3 14
BITMAP
FC
FC
ENDCHAR

STARTCHAR degree
ENCODING 176
SWIDTH 361 0
DWIDTH 12 0
BBX 6 6 2 12
BITMAP
30
78
CC
CC
78
30
ENDCHAR

STARTCHAR aogonek
ENCODING 177
SWIDTH 361 0
DWIDTH 12 0
BBX 11 15 1 -3
BITMAP
7F00
7F80
01C0
00C0
3EC0
7FC0
E1C0
C0C0
C0C0
E1C0
7FC0
3EC0
0180
01E0
00E0
ENDCHAR

STARTCHAR ogonek
ENCODING 178
SWIDTH 361 0
DWIDTH 12 0
BBX 4 3 6 -3
BITMAP
C0
F0
70
ENDCHAR

STARTCHAR rcommaaccent
ENCODING 179
SWIDTH 361 0
DWIDTH 12 0
BBX 9 16 2 -4
BITMAP
CF00
FF80
7180
6000
6000
6000
6000
6000
6000
6000
6000
6000
0000
1800
1800
3000
ENDCHAR

STARTCHAR acute
ENCODING 180
SWIDTH 361 0
DWIDTH 12 0
BBX 4 3 5 14
BITMAP
30
60
C0
ENDCHAR

STARTCHAR itilde
ENCODING 181
SWIDTH 361 0
DWIDTH 12 0
BBX 10 17 1 0
BITMAP
1980
3F00
6600
0000
0000
7C00
7C00
0C00
0C00
0C00
0C00
0C00
0C00
0C00
0C00
FFC0
FFC0
ENDCHAR

STARTCHAR lcommaaccent
ENCODING 182
SWIDTH 361 0
DWIDTH 12 0
BBX 10 20 1 -4
BITMAP
3C00
3C00
0C00
0C00
0C00
0C00
0C00
0C00
0C00
0C00
0C00
0C00
0C00
0C00
FFC0
FFC0
0000
0C00
0C00
1800
ENDCHAR

STARTCHAR caron
ENCODING 183
SWIDTH 361 0
DWIDTH 12 0
BBX 6 3 3 14
BITMAP
CC
78
30
ENDCHAR

STARTCHAR commaaccent
ENCODING 184
SWIDTH 361 0
DWIDTH 12 0
BBX 3 3 4 -4
BITMAP
60
60
C0
ENDCHAR

STARTCHAR scaron
ENCODING 185
SWIDTH 361 0
DWIDTH 12 0
BBX 10 17 1 0
BITMAP
3300
1E00
0C00
0000
0000
3F00
7F80
E1C0
C0C0
E000
7F00
3F80
01C0
C0C0
E1C0
7F80
3F00
ENDCHAR

STARTCHAR emacron
ENCODING 186
SWIDTH 361 0
DWIDTH 12 0
BBX 10 17 1 0
BITMAP
3F00
3F00
0000
0000
0000
3F00
7F80
E1C0
C0C0
FFC0
FFC0
C000
C000
C0C0
E1C0
7F80
3F00
ENDCHAR

STARTCHAR gcommaaccent
ENCODING 187
SWIDTH 361 0
DWIDTH 12 0
BBX 10 21 1 -4
BITMAP
0600
0C00
0C00
0000
0000
3FC0
7FC0
E1C0
C0C0
C0C0
C0C0
C0C0
C0C0
61C0
7FC0
3FC0
00C0
00C0
C180
FF80
7F00
ENDCHAR

STARTCHAR afii253
ENCODING 188
SWIDTH 361 0
DWIDTH 12 0
BBX 10 16 1 0
BITMAP
3000
3000
3000
3000
FF00
FF00
3000
3000
FE00
FE00
3000
3000
30C0
39C0
1F80
0F00
ENDCHAR

STARTCHAR afii238
ENCODING 189
SWIDTH 361 0
DWIDTH 12 0
BBX 10 16 1 0
BITMAP
DF00
FF80
E1C0
C0C0
C0C0
C0C0
C0C0
C0C0
C0C0
C0C0
C0C0
C0C0
C0C0
C1C0
C780
C700
ENDCHAR

STARTCHAR zcaron
ENCODING 190
SWIDTH 361 0
DWIDTH 12 0
BBX 10 17 1 0
BITMAP
3300
1E00
0C00
0000
0000
FFC0
FFC0
01C0
0380
0700
0E00
1C00
3800
7000
E000
FFC0
FFC0
ENDCHAR

STARTCHAR afii254
ENCODING 191
SWIDTH 361 0
DWIDTH 12 0
BBX 10 17 1 -5
BITMAP
CF00
DF80
F1C0
E0C0
C0C0
C0C0
C0C0
C0C0
C0C0
C0C0
C0C0
C0C0
00C0
00C0
01C0
0F80
0F00
ENDCHAR

STARTCHAR Amacron
ENCODING 192
SWIDTH 361 0
DWIDTH 12 0
BBX 10 21 1 0
BITMAP
3F00
3F00
0000
0000
0000
0C00
0C00
1E00
3300
3300
6180
6180
C0C0
C0C0
FFC0
FFC0
C0C0
C0C0
C0C0
C0C0
C0C0
ENDCHAR

STARTCHAR Aacute
ENCODING 193
SWIDTH 361 0
DWIDTH 12 0
BBX 10 21 1 0
BITMAP
0300
0600
0C00
0000
0000
0C00
0C00
1E00
3300
3300
6180
6180
C0C0
C0C0
FFC0
FFC0
C0C0
C0C0
C0C0
C0C0
C0C0
ENDCHAR

STARTCHAR Acircumflex
ENCODING 194
SWIDTH 361 0
DWIDTH 12 0
BBX 10 21 1 0
BITMAP
0C00
1E00
3300
0000
0000
0C00
0C00
1E00
3300
3300
6180
6180
C0C0
C0C0
FFC0
FFC0
C0C0
C0C0
C0C0
C0C0
C0C0
ENDCHAR

STARTCHAR Atilde
ENCODING 195
SWIDTH 361 0
DWIDTH 12 0
BBX 10 21 1 0
BITMAP
1980
3F00
6600
0000
0000
0C00
0C00
1E00
3300
3300
6180
6180
C0C0
C0C0
FFC0
FFC0
C0C0
C0C0
C0C0
C0C0
C0C0
ENDCHAR

STARTCHAR Adieresis
ENCODING 196
SWIDTH 361 0
DWIDTH 12 0
BBX 10 21 1 0
BITMAP
3300
3300
3300
0000
0000
0C00
0C00
1E00
3300
3300
6180
6180
C0C0
C0C0
FFC0
FFC0
C0C0
C0C0
C0C0
C0C0
C0C0
ENDCHAR

STARTCHAR Aring
ENCODING 197
SWIDTH 361 0
DWIDTH 12 0
BBX 10 20 1 0
BITMAP
1E00
3300
1E00
0000
0C00
0C00
1E00
3300
3300
6180
6180
C0C0
C0C0
FFC0
FFC0
C0C0
C0C0
C0C0
C0C0
C0C0
ENDCHAR

STARTCHAR AE
ENCODING 198
SWIDTH 361 0
DWIDTH 12 0
BBX 12 16 0 0
BITMAP
0FF0
0FF0
1E00
3600
3600
6600
6600
C7E0
C7E0
FE00
FE00
C600
C600
C600
C7F0
C7F0
ENDCHAR

STARTCHAR Iogonek
ENCODING 199
SWIDTH 361 0
DWIDTH 12 0
BBX 10 19 1 -3
BITMAP
FFC0
FFC0
0C00
0C00
0C00
0C00
0C00
0C00
0C00
0C00
0C00
0C00
0C00
0C00
FFC0
FFC0
0C00
0F00
0700
ENDCHAR

STARTCHAR Ccaron
ENCODING 200
SWIDTH 361 0
DWIDTH 12 0
BBX 10 21 1 0
BITMAP
3300
1E00
0C00
0000
0000
3F00
7F80
E1C0
C0C0
C000
C000
C000
C000
C000
C000
C000
C000
C0C0
E1C0
7F80
3F00
ENDCHAR

STARTCHAR Eacute
ENCODING 201
SWIDTH 361 0
DWIDTH 12 0
BBX 10 21 1 0
BITMAP
0300
0600
0C00
0000
0000
FFC0
FFC0
C000
C000
C000
C000
C000
FF00
FF00
C000
C000
C000
C000
C000
FFC0
FFC0
ENDCHAR

STARTCHAR Eogonek
ENCODING 202
SWIDTH 361 0
DWIDTH 12 0
BBX 10 19 1 -3
BITMAP
FFC0
FFC0
C000
C000
C000
C000
C000
FF00
FF00
C000
C000
C000
C000
C000
FFC0
FFC0
0300
03C0
01C0
ENDCHAR

STARTCHAR Edieresis
ENCODING 203
SWIDTH 361 0
DWIDTH 12 0
BBX 10 21 1 0
BITMAP
3300
3300
3300
0000
0000
FFC0
FFC0
C000
C000
C000
C000
C000
FF00
FF00
C000
C000
C000
C000
C000
FFC0
FFC0
ENDCHAR

STARTCHAR Edotaccent
ENCODING 204
SWIDTH 361 0
DWIDTH 12 0
BBX 10 21 1 0
BITMAP
0C00
0C00
0C00
0000
0000
FFC0
FFC0
C000
C000
C000
C000
C000
FF00
FF00
C000
C000
C000
C000
C000
FFC0
FFC0
ENDCHAR

STARTCHAR Iacute
ENCODING 205
SWIDTH 361 0
DWIDTH 12 0
BBX 10 21 1 0
BITMAP
0300
0600
0C00
0000
0000
FFC0
FFC0
0C00
0C00
0C00
0C00
0C00
0C00
0C00
0C00
0C00
0C00
0C00
0C00
FFC0
FFC0
ENDCHAR

STARTCHAR Icircumflex
ENCODING 206
SWIDTH 361 0
DWIDTH 12 0
BBX 10 21 1 0
BITMAP
0C00
1E00
3300
0000
0000
FFC0
FFC0
0C00
0C00
0C00
0C00
0C00
0C00
0C00
0C00
0C00
0C00
0C00
0C00
FFC0
FFC0
ENDCHAR

STARTCHAR Imacron
ENCODING 207
SWIDTH 361 0
DWIDTH 12 0
BBX 10 21 1 0
BITMAP
3F00
3F00
0000
0000
0000
FFC0
FFC0
0C00
0C00
0C00
0C00
0C00
0C00
0C00
0C00
0C00
0C00
0C00
0C00
FFC0
FFC0
ENDCHAR

STARTCHAR Eth
ENCODING 208
SWIDTH 361 0
DWIDTH 12 0
BBX 11 16 0 0
BITMAP
7F80
7FC0
30E0
3060
3060
3060
3060
FC60
FC60
3060
3060
3060
3060
30E0
7FC0
7F80
ENDCHAR

STARTCHAR Ncommaaccent
ENCODING 209
SWIDTH 361 0
DWIDTH 12 0
BBX 10 20 1 -4
BITMAP
C0C0
E0C0
E0C0
F0C0
F0C0
D8C0
D8C0
CCC0
CCC0
C6C0
C6C0
C3C0
C3C0
C1C0
C1C0
C0C0
0000
0C00
0C00
1800
ENDCHAR

STARTCHAR Omacron
ENCODING 210
SWIDTH 361 0
DWIDTH 12 0
BBX 10 21 1 0
BITMAP
3F00
3F00
0000
0000
0000
3F00
7F80
E1C0
C0C0
C0C0
C0C0
C0C0
C0C0
C0C0
C0C0
C0C0
C0C0
C0C0
E1C0
7F80
3F00
ENDCHAR

STARTCHAR Kcommaaccent
ENCODING 211
SWIDTH 361 0
DWIDTH 12 0
BBX 10 20 1 -4
BITMAP
C0C0
C1C0
C380
C700
CE00
DC00
F800
F000
F000
F800
DC00
CE00
C700
C380
C1C0
C0C0
0000
0C00
0C00
1800
ENDCHAR

STARTCHAR Ocircumflex
ENCODING 212
SWIDTH 361 0
DWIDTH 12 0
BBX 10 21 1 0
BITMAP
0C00
1E00
3300
0000
0000
3F00
7F80
E1C0
C0C0
C0C0
C0C0
C0C0
C0C0
C0C0
C0C0
C0C0
C0C0
C0C0
E1C0
7F80
3F00
ENDCHAR

STARTCHAR Otilde
ENCODING 213
SWIDTH 361 0
DWIDTH 12 0
BBX 10 21 1 0
BITMAP
1980
3F00
6600
0000
0000
3F00
7F80
E1C0
C0C0
C0C0
C0C0
C0C0
C0C0
C0C0
C0C0
C0C0
C0C0
C0C0
E1C0
7F80
3F00
ENDCHAR

STARTCHAR Odieresis
ENCODING 214
SWIDTH 361 0
DWIDTH 12 0
BBX 10 21 1 0
BITMAP
3180
3180
3180
0000
0000
3F00
7F80
E1C0
C0C0
C0C0
C0C0
C0C0
C0C0
C0C0
C0C0
C0C0
C0C0
C0C0
E1C0
7F80
3F00
ENDCHAR

STARTCHAR multiply
ENCODING 215
SWIDTH 361 0
DWIDTH 12 0
BBX 10 10 1 3
BITMAP
4080
E1C0
7380
3F00
1E00
1E00
3F00
7380
E1C0
4080
ENDCHAR

STARTCHAR Oslash
ENCODING 216
SWIDTH 361 0
DWIDTH 12 0
BBX 10 20 1 -2
BITMAP
00C0
00C0
3FC0
7FC0
E1C0
C3C0
C3C0
C6C0
C6C0
CCC0
CCC0
D8C0
D8C0
F0C0
F0C0
E1C0
FF80
FF00
C000
C000
ENDCHAR

STARTCHAR Uogonek
ENCODING 217
SWIDTH 361 0
DWIDTH 12 0
BBX 10 19 1 -3
BITMAP
C0C0
C0C0
C0C0
C0C0
C0C0
C0C0
C0C0
C0C0
C0C0
C0C0
C0C0
C0C0
C0C0
E1C0
7F80
3F00
0C00
0F00
0700
ENDCHAR

STARTCHAR Uacute
ENCODING 218
SWIDTH 361 0
DWIDTH 12 0
BBX 10 21 1 0
BITMAP
0300
0600
0C00
0000
0000
C0C0
C0C0
C0C0
C0C0
C0C0
C0C0
C0C0
C0C0
C0C0
C0C0
C0C0
C0C0
C0C0
E1C0
7F80
3F00
ENDCHAR

STARTCHAR Ucircumflex
ENCODING 219
SWIDTH 361 0
DWIDTH 12 0
BBX 10 21 1 0
BITMAP
0C00
1E00
3300
0000
0000
C0C0
C0C0
C0C0
C0C0
C0C0
C0C0
C0C0
C0C0
C0C0
C0C0
C0C0
C0C0
C0C0
E1C0
7F80
3F00
ENDCHAR

STARTCHAR Udieresis
ENCODING 220
SWIDTH 361 0
DWIDTH 12 0
BBX 10 21 1 0
BITMAP
3180
3180
3180
0000
0000
C0C0
C0C0
C0C0
C0C0
C0C0
C0C0
C0C0
C0C0
C0C0
C0C0
C0C0
C0C0
C0C0
E1C0
7F80
3F00
ENDCHAR

STARTCHAR Utilde
ENCODING 221
SWIDTH 361 0
DWIDTH 12 0
BBX 10 21 1 0
BITMAP
1980
3F00
6600
0000
0000
C0C0
C0C0
C0C0
C0C0
C0C0
C0C0
C0C0
C0C0
C0C0
C0C0
C0C0
C0C0
C0C0
E1C0
7F80
3F00
ENDCHAR

STARTCHAR Umacron
ENCODING 222
SWIDTH 361 0
DWIDTH 12 0
BBX 10 21 1 0
BITMAP
3F00
3F00
0000
0000
0000
C0C0
C0C0
C0C0
C0C0
C0C0
C0C0
C0C0
C0C0
C0C0
C0C0
C0C0
C0C0
C0C0
E1C0
7F80
3F00
ENDCHAR

STARTCHAR germandbls
ENCODING 223
SWIDTH 361 0
DWIDTH 12 0
BBX 10 17 1 -1
BITMAP
0F00
1F80
39C0
30C0
30C0
3180
F300
F380
31C0
30C0
30C0
30C0
30C0
31C0
3780
F700
E000
ENDCHAR

STARTCHAR amacron
ENCODING 224
SWIDTH 361 0
DWIDTH 12 0
BBX 10 16 1 0
BITMAP
3F00
3F00
0000
0000
7F00
7F80
01C0
00C0
3EC0
7FC0
E1C0
C0C0
C0C0
E1C0
7FC0
3EC0
ENDCHAR

STARTCHAR aacute
ENCODING 225
SWIDTH 361 0
DWIDTH 12 0
BBX 10 17 1 0
BITMAP
0300
0600
0C00
0000
0000
7F00
7F80
01C0
00C0
3EC0
7FC0
E1C0
C0C0
C0C0
E1C0
7FC0
3EC0
ENDCHAR

STARTCHAR acircumflex
ENCODING 226
SWIDTH 361 0
DWIDTH 12 0
BBX 10 17 1 0
BITMAP
0C00
1E00
3300
0000
0000
7F00
7F80
01C0
00C0
3EC0
7FC0
E1C0
C0C0
C0C0
E1C0
7FC0
3EC0
ENDCHAR

STARTCHAR atilde
ENCODING 227
SWIDTH 361 0
DWIDTH 12 0
BBX 10 17 1 0
BITMAP
0CC0
1F80
3300
0000
0000
7F00
7F80
01C0
00C0
3EC0
7FC0
E1C0
C0C0
C0C0
E1C0
7FC0
3EC0
ENDCHAR

STARTCHAR adieresis
ENCODING 228
SWIDTH 361 0
DWIDTH 12 0
BBX 10 17 1 0
BITMAP
3180
3180
3180
0000
0000
7F00
7F80
01C0
00C0
3EC0
7FC0
E1C0
C0C0
C0C0
E1C0
7FC0
3EC0
ENDCHAR

STARTCHAR aring
ENCODING 229
SWIDTH 361 0
DWIDTH 12 0
BBX 10 16 1 0
BITMAP
1E00
3300
1E00
0000
7F00
7F80
01C0
00C0
3EC0
7FC0
E1C0
C0C0
C0C0
E1C0
7FC0
3EC0
ENDCHAR

STARTCHAR ae
ENCODING 230
SWIDTH 361 0
DWIDTH 12 0
BBX 12 12 0 0
BITMAP
7BC0
7FE0
0E70
0630
3FF0
7FF0
E600
C600
C630
E670
7FE0
3FC0
ENDCHAR

STARTCHAR iogonek
ENCODING 231
SWIDTH 361 0
DWIDTH 12 0
BBX 10 19 1 -3
BITMAP
0C00
0C00
0C00
0000
7C00
7C00
0C00
0C00
0C00
0C00
0C00
0C00
0C00
0C00
FFC0
FFC0
1800
1E00
0E00
ENDCHAR

STARTCHAR ccaron
ENCODING 232
SWIDTH 361 0
DWIDTH 12 0
BBX 10 17 1 0
BITMAP
3300
1E00
0C00
0000
0000
3F00
7F80
E1C0
C0C0
C000
C000
C000
C000
C0C0
E1C0
7F80
3F00
ENDCHAR

STARTCHAR eacute
ENCODING 233
SWIDTH 361 0
DWIDTH 12 0
BBX 10 17 1 0
BITMAP
0300
0600
0C00
0000
0000
3F00
7F80
E1C0
C0C0
FFC0
FFC0
C000
C000
C0C0
E1C0
7F80
3F00
ENDCHAR

STARTCHAR eogonek
ENCODING 234
SWIDTH 361 0
DWIDTH 12 0
BBX 10 15 1 -3
BITMAP
3F00
7F80
E1C0
C0C0
FFC0
FFC0
C000
C000
C0C0
E1C0
7F80
3F00
1800
1E00
0E00
ENDCHAR

STARTCHAR edieresis
ENCODING 235
SWIDTH 361 0
DWIDTH 12 0
BBX 10 17 1 0
BITMAP
3180
3180
3180
0000
0000
3F00
7F80
E1C0
C0C0
FFC0
FFC0
C000
C000
C0C0
E1C0
7F80
3F00
ENDCHAR

STARTCHAR edotaccent
ENCODING 236
SWIDTH 361 0
DWIDTH 12 0
BBX 10 17 1 0
BITMAP
0C00
0C00
0C00
0000
0000
3F00
7F80
E1C0
C0C0
FFC0
FFC0
C000
C000
C0C0
E1C0
7F80
3F00
ENDCHAR

STARTCHAR iacute
ENCODING 237
SWIDTH 361 0
DWIDTH 12 0
BBX 10 17 1 0
BITMAP
0600
0C00
1800
0000
0000
7C00
7C00
0C00
0C00
0C00
0C00
0C00
0C00
0C00
0C00
FFC0
FFC0
ENDCHAR

STARTCHAR icircumflex
ENCODING 238
SWIDTH 361 0
DWIDTH 12 0
BBX 10 17 1 0
BITMAP
0C00
1E00
3300
0000
0000
7C00
7C00
0C00
0C00
0C00
0C00
0C00
0C00
0C00
0C00
FFC0
FFC0
ENDCHAR

STARTCHAR imacron
ENCODING 239
SWIDTH 361 0
DWIDTH 12 0
BBX 10 16 1 0
BITMAP
7E00
7E00
0000
0000
7C00
7C00
0C00
0C00
0C00
0C00
0C00
0C00
0C00
0C00
FFC0
FFC0
ENDCHAR

STARTCHAR dcroat
ENCODING 240
SWIDTH 361 0
DWIDTH 12 0
BBX 10 20 1 0
BITMAP
E000
7000
3B00
1F00
7C00
6E00
0700
0380
3F80
7FC0
E1C0
C0C0
C0C0
C0C0
C0C0
C0C0
C0C0
E1C0
7F80
3F00
ENDCHAR

STARTCHAR ncommaaccent
ENCODING 241
SWIDTH 361 0
DWIDTH 12 0
BBX 10 16 1 -4
BITMAP
CF00
DF80
F1C0
E0C0
C0C0
C0C0
C0C0
C0C0
C0C0
C0C0
C0C0
C0C0
0000
0C00
0C00
1800
ENDCHAR

STARTCHAR omacron
ENCODING 242
SWIDTH 361 0
DWIDTH 12 0
BBX 10 16 1 0
BITMAP
3F00
3F00
0000
0000
3F00
7F80
E1C0
C0C0
C0C0
C0C0
C0C0
C0C0
C0C0
E1C0
7F80
3F00
ENDCHAR

STARTCHAR kcommaaccent
ENCODING 243
SWIDTH 361 0
DWIDTH 12 0
BBX 10 20 1 -4
BITMAP
C000
C000
C000
C000
C380
C700
CE00
DC00
F800
F800
FC00
CE00
C700
C380
C1C0
C0C0
0000
0C00
0C00
1800
ENDCHAR

STARTCHAR ocircumflex
ENCODING 244
SWIDTH 361 0
DWIDTH 12 0
BBX 10 17 1 0
BITMAP
0C00
1E00
3300
0000
0000
3F00
7F80
E1C0
C0C0
C0C0
C0C0
C0C0
C0C0
C0C0
E1C0
7F80
3F00
ENDCHAR

STARTCHAR otilde
ENCODING 245
SWIDTH 361 0
DWIDTH 12 0
BBX 10 17 1 0
BITMAP
1980
3F00
6600
0000
0000
3F00
7F80
E1C0
C0C0
C0C0
C0C0
C0C0
C0C0
C0C0
E1C0
7F80
3F00
ENDCHAR

STARTCHAR odieresis
ENCODING 246
SWIDTH 361 0
DWIDTH 12 0
BBX 10 17 1 0
BITMAP
3180
3180
3180
0000
0000
3F00
7F80
E1C0
C0C0
C0C0
C0C0
C0C0
C0C0
C0C0
E1C0
7F80
3F00
ENDCHAR

STARTCHAR divide
ENCODING 247
SWIDTH 361 0
DWIDTH 12 0
BBX 10 10 1 3
BITMAP
0C00
0C00
0C00
0000
FFC0
FFC0
0000
0C00
0C00
0C00
ENDCHAR

STARTCHAR oslash
ENCODING 248
SWIDTH 361 0
DWIDTH 12 0
BBX 10 16 1 -2
BITMAP
0180
0180
3F80
7F80
E3C0
C6C0
C6C0
CCC0
CCC0
D8C0
D8C0
F1C0
7F80
7F00
6000
6000
ENDCHAR

STARTCHAR uogonek
ENCODING 249
SWIDTH 361 0
DWIDTH 12 0
BBX 10 15 1 -3
BITMAP
C0C0
C0C0
C0C0
C0C0
C0C0
C0C0
C0C0
C0C0
C1C0
E3C0
7EC0
3CC0
0C00
0F00
0700
ENDCHAR

STARTCHAR uacute
ENCODING 250
SWIDTH 361 0
DWIDTH 12 0
BBX 10 17 1 0
BITMAP
0300
0600
0C00
0000
0000
C0C0
C0C0
C0C0
C0C0
C0C0
C0C0
C0C0
C0C0
C1C0
E3C0
7EC0
3CC0
ENDCHAR

STARTCHAR ucircumflex
ENCODING 251
SWIDTH 361 0
DWIDTH 12 0
BBX 10 17 1 0
BITMAP
0C00
1E00
3300
0000
0000
C0C0
C0C0
C0C0
C0C0
C0C0
C0C0
C0C0
C0C0
C1C0
E3C0
7EC0
3CC0
ENDCHAR

STARTCHAR udieresis
ENCODING 252
SWIDTH 361 0
DWIDTH 12 0
BBX 10 17 1 0
BITMAP
6300
6300
6300
0000
0000
C0C0
C0C0
C0C0
C0C0
C0C0
C0C0
C0C0
C0C0
C1C0
E3C0
7EC0
3CC0
ENDCHAR

STARTCHAR utilde
ENCODING 253
SWIDTH 361 0
DWIDTH 12 0
BBX 10 17 1 0
BITMAP
1980
3F00
6600
0000
0000
C0C0
C0C0
C0C0
C0C0
C0C0
C0C0
C0C0
C0C0
C1C0
E3C0
7EC0
3CC0
ENDCHAR

STARTCHAR umacron
ENCODING 254
SWIDTH 361 0
DWIDTH 12 0
BBX 10 16 1 0
BITMAP
3F00
3F00
0000
0000
C0C0
C0C0
C0C0
C0C0
C0C0
C0C0
C0C0
C0C0
C1C0
E3C0
7EC0
3CC0
ENDCHAR

STARTCHAR dotaccent
ENCODING 255
SWIDTH 361 0
DWIDTH 12 0
BBX 2 3 5 14
BITMAP
C0
C0
C0
ENDCHAR
ENDFONT
